<?xml version="1.0" standalone="no"?>
<!DOCTYPE svg PUBLIC "-//W3C//DTD SVG 20010904//EN"
 "http://www.w3.org/TR/2001/REC-SVG-20010904/DTD/svg10.dtd">
<svg version="1.0" xmlns="http://www.w3.org/2000/svg"
 width="828.000000pt" height="1472.000000pt" viewBox="0 0 828.000000 1472.000000"
 preserveAspectRatio="xMidYMid meet">
<metadata>
Created by potrace 1.16, written by Peter Selinger 2001-2019
</metadata>
<g transform="translate(0.000000,1472.000000) scale(0.100000,-0.100000)"
fill="#000000" stroke="none">
<path d="M0 7360 l0 -7360 4140 0 4140 0 0 7360 0 7360 -4140 0 -4140 0 0
-7360z m4497 3281 c24 -12 51 -75 55 -125 1 -20 6 -36 11 -36 5 0 6 -13 2 -30
-7 -31 2 -39 23 -18 9 9 12 9 12 -1 0 -8 7 -11 19 -8 12 3 22 -1 26 -11 4 -12
8 -13 17 -4 16 16 28 15 28 -3 0 -8 5 -15 10 -15 6 0 10 4 10 9 0 13 43 1 52
-15 11 -18 126 -13 138 6 7 12 12 12 21 3 10 -10 8 -17 -7 -34 l-19 -22 28 5
c28 5 34 -1 17 -18 -13 -13 16 -74 35 -74 8 0 18 8 24 17 5 10 13 14 17 10 5
-5 4 -11 -1 -15 -13 -9 -16 -82 -4 -82 5 0 9 -15 9 -32 1 -30 2 -31 14 -15 20
27 24 21 18 -30 -4 -42 -3 -46 10 -36 13 11 14 -1 13 -97 -1 -116 -15 -159
-34 -107 -6 15 -13 27 -16 27 -11 0 -46 -83 -41 -97 10 -25 61 -10 110 34 49
44 63 45 99 12 17 -16 17 -17 -8 -23 -23 -6 -26 -11 -20 -29 10 -30 24 -294
18 -334 -3 -20 -20 -46 -49 -73 -43 -40 -51 -59 -26 -68 15 -5 79 85 87 123 4
16 9 24 12 18 8 -20 -26 -111 -74 -197 -23 -43 -44 -86 -44 -95 -1 -13 -2 -13
-6 2 -10 40 -19 11 -23 -80 -8 -192 -5 -349 8 -413 8 -36 16 -76 18 -89 4 -19
-17 -45 -120 -147 -88 -88 -134 -126 -155 -130 -17 -4 -31 -9 -31 -13 0 -3
-11 -7 -25 -7 -14 -1 -25 3 -25 10 0 6 -5 4 -10 -4 -6 -9 -10 -10 -10 -3 0 6
7 18 15 27 9 9 11 17 5 21 -6 3 -7 17 -4 31 4 17 1 31 -11 44 -15 16 -16 22
-5 35 11 13 10 18 -3 28 -8 7 -17 31 -19 54 -3 41 -3 42 22 36 20 -5 23 -3 13
8 -7 7 -13 24 -13 37 0 19 -4 22 -22 17 -95 -28 -142 -51 -132 -66 3 -5 -4 -9
-15 -9 -12 0 -21 4 -21 10 0 5 -7 7 -15 4 -8 -4 -15 -12 -15 -19 0 -7 -9 -15
-20 -18 -23 -6 -27 11 -5 19 13 5 13 9 3 22 -11 13 -10 15 4 10 9 -4 19 -1 21
7 8 20 -1 24 -39 18 -26 -4 -35 -2 -40 12 -5 13 -9 14 -15 3 -7 -10 -9 -10 -9
0 0 6 -6 12 -14 12 -20 0 -76 33 -76 44 0 5 -6 17 -14 25 -15 18 -45 108 -48
146 -1 14 -7 25 -13 25 -6 0 -6 3 1 8 13 8 25 74 12 66 -4 -3 -8 7 -9 23 0 15
-2 37 -5 48 -2 11 -5 34 -6 50 -1 17 -6 33 -10 36 -15 10 10 59 27 53 9 -4 15
-1 15 9 0 8 -10 18 -22 21 -21 6 -21 7 -5 17 9 5 17 17 17 24 0 8 7 15 15 15
8 0 15 5 15 11 0 7 10 9 26 5 21 -6 25 -4 21 8 -4 9 -2 18 2 21 5 2 12 20 15
39 4 19 14 37 22 40 9 3 14 12 11 19 -2 6 -1 24 3 38 6 21 5 26 -9 25 -10 -1
-15 5 -13 17 4 22 -16 49 -30 41 -16 -10 -58 6 -58 21 0 8 5 15 10 15 6 0 10
6 10 13 0 7 17 23 38 35 35 19 41 20 66 7 32 -17 72 -20 81 -5 3 5 1 19 -5 30
-8 16 -8 20 4 20 9 0 12 7 9 18 -4 17 -115 82 -139 82 -6 0 -17 7 -24 15 -8
10 -9 15 -1 15 6 0 8 11 5 30 -5 22 -2 31 10 35 53 17 52 14 21 43 -45 41
-102 82 -114 82 -6 0 -20 -5 -31 -12 -26 -17 -31 -8 -20 32 6 19 8 42 5 50 -4
11 5 21 27 31 38 16 39 36 2 76 -13 14 -22 28 -19 31 2 3 -3 10 -12 17 -15 11
-14 14 7 35 21 21 22 24 6 36 -14 9 -16 21 -12 51 4 21 13 43 21 49 17 13 9
24 -18 24 -13 0 -17 5 -13 16 4 11 2 15 -6 11 -8 -3 -13 4 -13 18 0 13 3 21 6
19 4 -2 9 3 13 11 3 8 2 15 -2 15 -4 0 -8 12 -7 28 0 22 7 29 35 39 27 9 30
12 13 12 -22 1 -34 31 -13 31 6 0 10 -4 10 -10 0 -5 4 -10 9 -10 5 0 7 9 4 20
-4 15 -11 19 -24 15 -14 -5 -19 -1 -19 14 0 17 4 19 30 11 24 -7 30 -6 30 7 0
11 8 14 30 11 24 -4 27 -2 18 9 -10 12 4 14 89 10 55 -3 109 -10 120 -16z
m-642 -1063 c1 -16 -3 -28 -7 -28 -4 0 -7 -8 -5 -17 5 -33 26 -61 49 -66 26
-7 44 -43 51 -103 4 -34 0 -47 -19 -69 -28 -33 -28 -32 -9 -51 17 -18 20 -34
5 -34 -16 0 -12 -27 6 -34 21 -8 15 -75 -9 -90 -13 -8 -24 -7 -48 7 -39 22
-127 23 -136 2 -3 -9 -18 -22 -34 -30 -28 -15 -29 -14 -45 17 -11 20 -19 64
-21 111 -4 82 9 131 72 262 27 57 44 115 38 132 -3 7 10 13 34 16 69 7 78 4
78 -25z m2017 -5253 c46 -7 68 -36 68 -87 0 -54 -24 -73 -99 -81 -76 -8 -84
-12 -71 -37 5 -10 10 -34 10 -53 0 -36 -19 -60 -59 -72 -13 -4 -44 -23 -70
-42 -25 -20 -60 -42 -76 -50 -28 -14 -31 -19 -30 -66 l0 -51 -55 -16 c-108
-33 -146 -57 -197 -122 -26 -35 -81 -106 -123 -159 -197 -250 -342 -457 -464
-662 -115 -194 -147 -235 -315 -414 -98 -104 -157 -159 -187 -174 -52 -25 -62
-21 -39 14 19 30 25 109 7 115 -7 2 -12 8 -12 14 0 6 7 7 16 4 11 -4 18 1 21
14 3 11 12 20 19 20 18 0 18 11 0 35 -12 17 -12 21 7 34 20 14 20 15 1 22 -16
6 -14 8 9 8 31 1 37 20 7 28 -20 5 -24 41 -6 54 12 9 -2 28 -28 40 -18 8 -17
9 10 6 26 -3 30 0 26 15 -2 10 1 18 8 18 10 0 10 3 0 15 -10 13 -9 15 9 15 23
0 28 19 9 39 -11 11 -9 13 10 8 15 -3 22 -1 22 9 0 8 5 14 11 14 6 0 8 7 5 16
-4 10 -2 13 6 8 7 -5 9 1 6 19 -3 17 0 28 10 32 8 3 12 11 9 19 -3 8 4 33 16
57 15 30 17 44 9 47 -7 2 -12 13 -12 25 0 16 3 18 12 9 18 -18 31 -14 25 8 -4
17 -1 19 18 14 23 -6 23 -4 12 20 -7 14 -15 26 -19 26 -5 0 -8 7 -8 15 0 8 3
15 8 15 16 0 33 41 22 55 -8 9 -7 14 5 18 8 4 12 13 9 21 -3 8 -1 17 5 21 6 3
11 -2 12 -12 0 -14 3 -12 11 7 11 26 12 40 2 100 -5 33 -5 34 10 15 14 -18 15
-18 16 -2 0 9 0 20 -1 23 0 4 5 10 11 14 9 6 9 13 -2 30 -9 16 -10 24 -2 27 7
2 9 13 7 25 -4 11 0 24 7 28 11 7 11 12 2 23 -10 12 -9 16 4 21 9 3 21 3 26 0
7 -5 9 3 5 22 -7 36 2 86 14 78 5 -3 9 5 9 17 0 18 2 19 15 9 20 -17 20 4 -1
24 -18 19 -15 19 23 6 l28 -10 -23 20 c-24 20 -22 40 3 40 7 0 16 -6 18 -12 3
-8 6 -6 6 5 1 10 -9 22 -21 27 -13 5 -17 9 -9 9 7 1 11 7 8 16 -4 8 6 24 23
39 18 14 28 31 24 39 -3 8 6 23 20 35 29 22 34 37 11 28 -8 -3 -15 -1 -15 4 0
6 8 10 18 10 14 0 15 2 2 10 -12 7 -12 12 -2 22 6 6 12 20 12 30 0 18 6 28 39
64 12 14 12 17 0 25 -11 7 -10 9 5 9 11 0 16 5 13 14 -9 22 45 29 61 8 10 -13
15 -14 21 -4 6 10 15 9 42 -5 19 -10 36 -21 37 -25 2 -5 11 -8 21 -8 9 0 52
-20 95 -44 43 -25 93 -50 112 -56 18 -6 36 -16 39 -21 4 -5 16 -9 29 -9 12 0
26 -3 30 -7 3 -4 15 -8 25 -10 10 -1 39 -12 65 -23 28 -12 70 -20 101 -20 l54
0 48 78 c26 43 66 113 88 155 31 59 45 77 61 77 12 0 26 6 31 13 8 10 33 75
49 125 2 7 13 11 26 8 13 -3 40 -8 60 -11z"/>
<path d="M4991 9583 c-9 -30 -8 -39 4 -46 9 -4 13 -12 10 -18 -4 -5 5 -9 19
-9 21 0 26 -5 26 -25 0 -25 -8 -29 -42 -26 -12 2 -18 -5 -18 -19 0 -12 -11
-35 -25 -52 -27 -32 -31 -61 -15 -103 8 -22 14 -24 37 -19 28 7 43 20 43 38 0
6 -6 2 -13 -8 -11 -16 -15 -16 -25 -3 -10 12 -9 22 8 51 11 20 20 45 20 56 0
25 27 26 52 3 18 -16 20 -16 44 12 30 35 38 66 29 103 -10 44 -33 71 -71 87
-57 24 -72 20 -83 -22z"/>
</g>
</svg>
